Coordinates
version=1
nRows=7
nColumns=42
inDegrees=yes

Units are S.I. units (second, meters, Newtons, ...)
If the header above contains a line with 'inDegrees', this indicates whether rotational values are in degrees (yes) or radians (no).

endheader
time	pelvis_tilt	pelvis_list	pelvis_rotation	pelvis_tx	pelvis_ty	pelvis_tz	hip_flexion_r	hip_adduction_r	hip_rotation_r	knee_angle_r	knee_adduction_r	knee_angle_r_beta	ankle_angle_r	subtalar_angle_r	mtp_angle_r	hip_flexion_l	hip_adduction_l	hip_rotation_l	knee_angle_l	knee_adduction_l	knee_angle_l_beta	ankle_angle_l	subtalar_angle_l	mtp_angle_l	lumbar_extension	lumbar_bending	lumbar_rotation	arm_flex_r	arm_add_r	arm_rot_r	elbow_flex_r	pro_sup_r	wrist_flex_r	wrist_dev_r	arm_flex_l	arm_add_l	arm_rot_l	elbow_flex_l	pro_sup_l	wrist_flex_l	wrist_dev_l
      0.85000000	     20.53811097	      0.69337062	     -0.31075594	     -0.14699600	      0.99908566	     -0.10430077	    -22.55773424	      4.20730403	    -28.64044182	     15.60120112	     -7.44098696	      0.27229233	     20.18092989	     32.66922891	     -7.69192856	      6.60049962	      1.31352426	     -1.06938920	     38.88907835	     -2.55601039	      0.67874246	      3.63571603	     -4.27957657	     -7.69192856	    -43.73102377	      0.79875934	      7.02652798	      5.08805038	    -20.43043253	     -2.76286412	     70.46430564	     90.00000001	      0.00000000	      0.00000000	     -3.80424058	    -16.37637528	     -1.27361944	     52.43142648	     90.00000001	      0.00000000	      0.00000000
      0.86000000	     20.52708372	      0.36952021	     -0.75994539	     -0.13395426	      0.99686310	     -0.10348973	    -23.61612619	      4.38076767	    -28.47548198	     15.22678918	     -7.25952656	      0.26575761	     20.70408519	     33.00677250	     -7.67671482	      7.29342461	      1.04335298	     -3.13682236	     35.93267489	     -3.38052275	      0.62714349	      3.86271585	     -0.91432528	     -7.67671482	    -43.77913604	      0.86776426	      7.34764223	      5.47773376	    -20.76784381	     -2.21243194	     70.88298395	     90.00000001	      0.00000000	      0.00000000	     -4.38725746	    -16.09032954	     -1.59670413	     52.27631784	     90.00000001	      0.00000000	      0.00000000
      0.87000000	     20.36159135	      0.06889947	     -1.23693641	     -0.12104814	      0.99439695	     -0.10265953	    -24.38446213	      4.54109484	    -28.05373704	     15.08522127	     -7.17831985	      0.26328678	     21.28234795	     32.86138542	     -7.67305582	      7.97865191	      0.81895971	     -4.45369673	     32.85075569	     -3.63386939	      0.57335385	      3.33158411	      0.35191708	     -7.67305582	    -43.69230665	      0.89637100	      7.74213148	      5.88576032	    -20.94875261	     -2.02891654	     71.11613859	     90.00000001	      0.00000000	      0.00000000	     -4.88578749	    -15.90914237	     -1.66075762	     52.09243952	     90.00000001	      0.00000000	      0.00000000
      0.88000000	     20.47847282	     -0.39040459	     -1.77575603	     -0.10765962	      0.99178492	     -0.10179508	    -25.44129462	      4.76179314	    -27.93770343	     15.03249024	     -7.14808383	      0.26236645	     21.85123776	     33.29815917	     -7.66067059	      8.60061309	      0.21304719	     -8.66601756	     30.24712740	     -5.01561986	      0.52791196	      4.20621934	      7.35612890	     -7.66067059	    -43.85012736	      1.04160632	      8.11923558	      6.25653752	    -21.57753814	     -0.91294601	     71.58487665	     90.00000001	      0.00000000	      0.00000000	     -5.63342280	    -15.49072316	     -2.33566150	     52.14479023	     90.00000001	      0.00000000	      0.00000000
      0.89000000	     20.43787057	     -0.80224424	     -2.32882750	     -0.09435442	      0.98902740	     -0.10095046	    -26.24081761	      4.93425906	    -27.60344266	     15.16348880	     -7.17722393	      0.26465281	     22.52754466	     33.27925146	     -7.64782108	      9.22376170	     -0.31083349	    -11.92498838	     27.67243583	     -5.67603928	      0.48297512	      4.37261483	     11.96500259	     -7.64782108	    -43.86226175	      1.12974558	      8.57241625	      6.67777540	    -21.84199837	     -0.52731977	     71.72522297	     90.00000001	      0.00000000	      0.00000000	     -6.25584169	    -15.18022374	     -2.64401360	     52.12644203	     90.00000001	      0.00000000	      0.00000000
      0.90000000	     20.36826064	     -1.19837888	     -2.91660002	     -0.08096387	      0.98621714	     -0.10016455	    -26.94702015	      5.03214979	    -27.27692493	     15.44236140	     -7.24783292	      0.26952005	     23.15815085	     33.29910982	     -7.63783407	      9.81720292	     -0.82032996	    -15.19886611	     25.33180025	     -6.16219866	      0.44212332	      4.37113027	     16.15037871	     -7.63783407	    -43.85146964	      1.19732305	      9.03112761	      7.08927487	    -22.21205764	      0.05214584	     71.84913361	     90.00000001	      0.00000000	      0.00000000	     -6.88951974	    -14.84235936	     -2.99421399	     52.14429175	     90.00000001	      0.00000000	      0.00000000
      0.91000000	     20.29168507	     -1.57114028	     -3.55122105	     -0.06747212	      0.98341384	     -0.09930186	    -27.61476803	      5.07186330	    -26.91532136	     15.78908444	     -7.38456609	      0.27557151	     23.76634837	     33.31771055	     -7.62733992	     10.33798197	     -1.36375365	    -18.33999797	     23.31032928	     -6.33560290	      0.40684200	      4.54210310	     19.87069982	     -7.62733992	    -43.82766622	      1.18941487	      9.51586082	      7.47688911	    -22.44931034	      0.49980570	     71.85403321	     90.00000001	      0.00000000	      0.00000000	     -7.46414847	    -14.50995039	     -3.32274019	     52.15231116	     90.00000001	      0.00000000	      0.00000000
